<svg width="38" height="30" viewBox="0 0 38 30" fill="none" xmlns="http://www.w3.org/2000/svg">
<path d="M26.75 9.92203C26.8292 9.05006 27.1598 8.21983 27.7017 7.53208C28.2436 6.84433 28.9734 6.3286 29.8026 6.04748C30.6318 5.76636 31.5247 5.73193 32.3731 5.94835C33.2215 6.16478 33.9889 6.62277 34.5821 7.26675C35.1753 7.91073 35.5689 8.71303 35.7151 9.57631C35.8613 10.4396 35.7538 11.3267 35.4057 12.1301C35.0575 12.9335 34.4838 13.6186 33.7539 14.1023C33.0241 14.586 32.1696 14.8474 31.294 14.855H3.92731" stroke="#F2F6F9" stroke-width="2.45625" stroke-linecap="round" stroke-linejoin="round"/>
<path d="M12.8721 5.60312C12.9514 4.73522 13.2808 3.90897 13.8204 3.22459C14.36 2.54021 15.0866 2.02711 15.912 1.74754C16.7375 1.46796 17.6263 1.43392 18.4708 1.64955C19.3152 1.86517 20.0789 2.3212 20.6692 2.9623C21.2596 3.60341 21.6512 4.40205 21.7966 5.26135C21.942 6.12064 21.835 7.00367 21.4884 7.80332C21.1418 8.60296 20.5707 9.28487 19.8442 9.76631C19.1178 10.2478 18.2672 10.508 17.3957 10.5156H1.36871" stroke="#9FDDFF" stroke-width="2.45625" stroke-linecap="round" stroke-linejoin="round"/>
<path d="M21.0801 24.1273C21.1633 24.9989 21.4976 25.8275 22.0425 26.5128C22.5874 27.198 23.3194 27.7105 24.1497 27.9879C24.9801 28.2653 25.8731 28.2959 26.7205 28.0757C27.5679 27.8556 28.3331 27.3944 28.9235 26.7479C29.5139 26.1014 29.904 25.2975 30.0465 24.4337C30.189 23.5699 30.0778 22.6833 29.7263 21.8815C29.3748 21.0796 28.7982 20.397 28.0665 19.9164C27.3347 19.4358 26.4792 19.1779 25.6037 19.1739H9.57666" stroke="#9FDDFF" stroke-width="2.45625" stroke-linecap="round" stroke-linejoin="round"/>
</svg>
