<svg width="27" height="37" viewBox="0 0 27 37" fill="none" xmlns="http://www.w3.org/2000/svg">
<rect x="0.28125" y="0.140625" width="26.3228" height="36.8233" rx="10.2344" fill="url(#paint0_linear_505_1350)"/>
<path d="M17.9458 11.9306C17.2958 11.9331 16.6568 11.7637 16.0935 11.4394C15.5302 11.1152 15.0627 10.6477 14.7384 10.0844C14.4141 9.52108 14.2447 8.88202 14.2472 8.23206C14.2497 7.5821 14.4241 6.94437 14.7527 6.38359V6.38359L17.4955 1.63484C17.5393 1.55361 17.6043 1.48574 17.6836 1.43845C17.7629 1.39115 17.8535 1.36618 17.9458 1.36618C18.0381 1.36618 18.1287 1.39115 18.208 1.43845C18.2873 1.48574 18.3523 1.55361 18.3961 1.63484L21.1389 6.38359C21.4675 6.94437 21.6419 7.5821 21.6444 8.23206C21.6469 8.88202 21.4775 9.52108 21.1532 10.0844C20.8289 10.6477 20.3614 11.1152 19.7981 11.4394C19.2348 11.7637 18.5957 11.9331 17.9458 11.9306V11.9306Z" stroke="#9FDDFF" stroke-width="2.47672" stroke-linecap="round" stroke-linejoin="round"/>
<path d="M19.5628 35.7358C18.5499 35.7258 17.5572 35.4503 16.684 34.9369C15.8107 34.4235 15.0874 33.69 14.5861 32.8097C14.0848 31.9294 13.8232 30.933 13.8273 29.92C13.8314 28.907 14.101 27.9128 14.6094 27.0366V27.0366L18.8464 19.5859C18.9172 19.458 19.021 19.3513 19.147 19.277C19.273 19.2027 19.4166 19.1636 19.5628 19.1636C19.7091 19.1636 19.8527 19.2027 19.9787 19.277C20.1046 19.3513 20.2084 19.458 20.2792 19.5859L24.5777 27.0366C25.0886 27.9173 25.3583 28.9171 25.3597 29.9353C25.361 30.9535 25.094 31.954 24.5855 32.8361C24.077 33.7182 23.345 34.4507 22.4632 34.9598C21.5814 35.4689 20.581 35.7365 19.5628 35.7358V35.7358Z" stroke="#9FDDFF" stroke-width="2.47672" stroke-linecap="round" stroke-linejoin="round"/>
<path d="M6.15578 25.4605C5.34925 25.4574 4.55754 25.2435 3.85919 24.84C3.16084 24.4365 2.58011 23.8575 2.17463 23.1603C1.76914 22.4631 1.55298 21.672 1.54759 20.8655C1.5422 20.059 1.74777 19.265 2.1439 18.5625V18.5625L5.58265 12.5652C5.6393 12.4628 5.72233 12.3774 5.82312 12.318C5.92391 12.2586 6.03878 12.2273 6.15578 12.2273C6.27278 12.2273 6.38765 12.2586 6.48844 12.318C6.58923 12.3774 6.67226 12.4628 6.7289 12.5652L10.1677 18.5625C10.5776 19.2722 10.7916 20.078 10.7878 20.8976C10.7841 21.7172 10.5626 22.521 10.1462 23.2269C9.72974 23.9328 9.13323 24.5153 8.41771 24.915C7.70218 25.3146 6.89333 25.517 6.0739 25.5014L6.15578 25.4605Z" stroke="#9FDDFF" stroke-width="2.47672" stroke-linecap="round" stroke-linejoin="round"/>
<defs>
<linearGradient id="paint0_linear_505_1350" x1="13.4427" y1="0.140625" x2="13.4427" y2="36.9639" gradientUnits="userSpaceOnUse">
<stop offset="0.947917" stop-color="#61A5E4" stop-opacity="0.62"/>
</linearGradient>
</defs>
</svg>
