<svg width="50" height="50" viewBox="0 0 50 50" fill="none" xmlns="http://www.w3.org/2000/svg">
<rect x="12.9688" y="6.67188" width="26.3228" height="36.8233" rx="10.2344" fill="#1784E8"/>
<path d="M30.6333 18.4619C29.9833 18.4644 29.3443 18.2949 28.781 17.9707C28.2177 17.6464 27.7502 17.1789 27.4259 16.6156C27.1016 16.0523 26.9322 15.4133 26.9347 14.7633C26.9372 14.1134 27.1116 13.4756 27.4402 12.9148V12.9148L30.183 8.16609C30.2268 8.08486 30.2918 8.01699 30.3711 7.9697C30.4504 7.9224 30.541 7.89743 30.6333 7.89743C30.7256 7.89743 30.8162 7.9224 30.8955 7.9697C30.9748 8.01699 31.0398 8.08486 31.0836 8.16609L33.8264 12.9148C34.155 13.4756 34.3294 14.1134 34.3319 14.7633C34.3344 15.4133 34.165 16.0523 33.8407 16.6156C33.5164 17.1789 33.0489 17.6464 32.4856 17.9707C31.9223 18.2949 31.2832 18.4644 30.6333 18.4619V18.4619Z" stroke="white" stroke-width="2.47672" stroke-linecap="round" stroke-linejoin="round"/>
<path d="M32.2503 42.267C31.2374 42.257 30.2447 41.9816 29.3715 41.4682C28.4982 40.9547 27.7749 40.2213 27.2736 39.341C26.7723 38.4606 26.5107 37.4643 26.5148 36.4513C26.5189 35.4383 26.7885 34.444 27.2969 33.5678V33.5678L31.5339 26.1172C31.6047 25.9892 31.7085 25.8825 31.8345 25.8083C31.9605 25.734 32.1041 25.6948 32.2503 25.6948C32.3966 25.6948 32.5402 25.734 32.6662 25.8083C32.7921 25.8825 32.8959 25.9892 32.9667 26.1172L37.2652 33.5678C37.7761 34.4485 38.0458 35.4484 38.0472 36.4665C38.0485 37.4847 37.7815 38.4853 37.273 39.3674C36.7645 40.2495 36.0325 40.982 35.1507 41.491C34.2689 42.0001 33.2685 42.2678 32.2503 42.267V42.267Z" stroke="white" stroke-width="2.47672" stroke-linecap="round" stroke-linejoin="round"/>
<path d="M18.8433 31.9917C18.0368 31.9886 17.245 31.7747 16.5467 31.3713C15.8483 30.9678 15.2676 30.3887 14.8621 29.6915C14.4566 28.9943 14.2405 28.2032 14.2351 27.3967C14.2297 26.5902 14.4353 25.7963 14.8314 25.0937V25.0937L18.2702 19.0964C18.3268 18.994 18.4098 18.9087 18.5106 18.8493C18.6114 18.7898 18.7263 18.7585 18.8433 18.7585C18.9603 18.7585 19.0751 18.7898 19.1759 18.8493C19.2767 18.9087 19.3598 18.994 19.4164 19.0964L22.8552 25.0937C23.2651 25.8034 23.4791 26.6093 23.4753 27.4288C23.4716 28.2484 23.2501 29.0522 22.8337 29.7581C22.4172 30.464 21.8207 31.0466 21.1052 31.4462C20.3897 31.8459 19.5808 32.0483 18.7614 32.0327L18.8433 31.9917Z" stroke="white" stroke-width="2.47672" stroke-linecap="round" stroke-linejoin="round"/>
</svg>
